<?xml version="1.0" standalone="no"?>
<svg xmlns:xlink="http://www.w3.org/1999/xlink" id="wave" style="transform:rotate(0deg); transition: 0.3s" viewBox="0 0 1440 490" version="1.1" xmlns="http://www.w3.org/2000/svg"><defs><linearGradient id="sw-gradient-0" x1="0" x2="0" y1="1" y2="0"><stop stop-color="rgba(207.508, 96.725, 147.621, 1)" offset="0%"/><stop stop-color="rgba(207.508, 11.203, 194.485, 1)" offset="100%"/></linearGradient></defs><path style="transform:translate(0, 0px); opacity:1" fill="url(#sw-gradient-0)" d="M0,441L34.3,441C68.6,441,137,441,206,400.2C274.3,359,343,278,411,261.3C480,245,549,294,617,310.3C685.7,327,754,310,823,326.7C891.4,343,960,392,1029,375.7C1097.1,359,1166,278,1234,261.3C1302.9,245,1371,294,1440,318.5C1508.6,343,1577,343,1646,351.2C1714.3,359,1783,376,1851,392C1920,408,1989,425,2057,367.5C2125.7,310,2194,180,2263,122.5C2331.4,65,2400,82,2469,89.8C2537.1,98,2606,98,2674,98C2742.9,98,2811,98,2880,147C2948.6,196,3017,294,3086,334.8C3154.3,376,3223,359,3291,351.2C3360,343,3429,343,3497,302.2C3565.7,261,3634,180,3703,122.5C3771.4,65,3840,33,3909,57.2C3977.1,82,4046,163,4114,212.3C4182.9,261,4251,278,4320,236.8C4388.6,196,4457,98,4526,81.7C4594.3,65,4663,131,4731,138.8C4800,147,4869,98,4903,73.5L4937.1,49L4937.1,490L4902.9,490C4868.6,490,4800,490,4731,490C4662.9,490,4594,490,4526,490C4457.1,490,4389,490,4320,490C4251.4,490,4183,490,4114,490C4045.7,490,3977,490,3909,490C3840,490,3771,490,3703,490C3634.3,490,3566,490,3497,490C3428.6,490,3360,490,3291,490C3222.9,490,3154,490,3086,490C3017.1,490,2949,490,2880,490C2811.4,490,2743,490,2674,490C2605.7,490,2537,490,2469,490C2400,490,2331,490,2263,490C2194.3,490,2126,490,2057,490C1988.6,490,1920,490,1851,490C1782.9,490,1714,490,1646,490C1577.1,490,1509,490,1440,490C1371.4,490,1303,490,1234,490C1165.7,490,1097,490,1029,490C960,490,891,490,823,490C754.3,490,686,490,617,490C548.6,490,480,490,411,490C342.9,490,274,490,206,490C137.1,490,69,490,34,490L0,490Z"/><defs><linearGradient id="sw-gradient-1" x1="0" x2="0" y1="1" y2="0"><stop stop-color="rgba(166.343, 37.195, 166.526, 1)" offset="0%"/><stop stop-color="rgba(241.659, 22.597, 182.604, 1)" offset="100%"/></linearGradient></defs><path style="transform:translate(0, 50px); opacity:0.9" fill="url(#sw-gradient-1)" d="M0,294L34.3,277.7C68.6,261,137,229,206,212.3C274.3,196,343,196,411,204.2C480,212,549,229,617,236.8C685.7,245,754,245,823,236.8C891.4,229,960,212,1029,187.8C1097.1,163,1166,131,1234,155.2C1302.9,180,1371,261,1440,318.5C1508.6,376,1577,408,1646,408.3C1714.3,408,1783,376,1851,359.3C1920,343,1989,343,2057,351.2C2125.7,359,2194,376,2263,318.5C2331.4,261,2400,131,2469,73.5C2537.1,16,2606,33,2674,65.3C2742.9,98,2811,147,2880,155.2C2948.6,163,3017,131,3086,98C3154.3,65,3223,33,3291,65.3C3360,98,3429,196,3497,204.2C3565.7,212,3634,131,3703,147C3771.4,163,3840,278,3909,310.3C3977.1,343,4046,294,4114,277.7C4182.9,261,4251,278,4320,294C4388.6,310,4457,327,4526,294C4594.3,261,4663,180,4731,155.2C4800,131,4869,163,4903,179.7L4937.1,196L4937.1,490L4902.9,490C4868.6,490,4800,490,4731,490C4662.9,490,4594,490,4526,490C4457.1,490,4389,490,4320,490C4251.4,490,4183,490,4114,490C4045.7,490,3977,490,3909,490C3840,490,3771,490,3703,490C3634.3,490,3566,490,3497,490C3428.6,490,3360,490,3291,490C3222.9,490,3154,490,3086,490C3017.1,490,2949,490,2880,490C2811.4,490,2743,490,2674,490C2605.7,490,2537,490,2469,490C2400,490,2331,490,2263,490C2194.3,490,2126,490,2057,490C1988.6,490,1920,490,1851,490C1782.9,490,1714,490,1646,490C1577.1,490,1509,490,1440,490C1371.4,490,1303,490,1234,490C1165.7,490,1097,490,1029,490C960,490,891,490,823,490C754.3,490,686,490,617,490C548.6,490,480,490,411,490C342.9,490,274,490,206,490C137.1,490,69,490,34,490L0,490Z"/><defs><linearGradient id="sw-gradient-2" x1="0" x2="0" y1="1" y2="0"><stop stop-color="rgba(236.613, 62, 243, 1)" offset="0%"/><stop stop-color="rgba(255, 11, 156.16, 1)" offset="100%"/></linearGradient></defs><path style="transform:translate(0, 100px); opacity:0.8" fill="url(#sw-gradient-2)" d="M0,343L34.3,343C68.6,343,137,343,206,351.2C274.3,359,343,376,411,351.2C480,327,549,261,617,196C685.7,131,754,65,823,49C891.4,33,960,65,1029,89.8C1097.1,114,1166,131,1234,155.2C1302.9,180,1371,212,1440,187.8C1508.6,163,1577,82,1646,81.7C1714.3,82,1783,163,1851,179.7C1920,196,1989,147,2057,171.5C2125.7,196,2194,294,2263,310.3C2331.4,327,2400,261,2469,261.3C2537.1,261,2606,327,2674,359.3C2742.9,392,2811,392,2880,334.8C2948.6,278,3017,163,3086,147C3154.3,131,3223,212,3291,277.7C3360,343,3429,392,3497,367.5C3565.7,343,3634,245,3703,228.7C3771.4,212,3840,278,3909,310.3C3977.1,343,4046,343,4114,285.8C4182.9,229,4251,114,4320,122.5C4388.6,131,4457,261,4526,294C4594.3,327,4663,261,4731,220.5C4800,180,4869,163,4903,155.2L4937.1,147L4937.1,490L4902.9,490C4868.6,490,4800,490,4731,490C4662.9,490,4594,490,4526,490C4457.1,490,4389,490,4320,490C4251.4,490,4183,490,4114,490C4045.7,490,3977,490,3909,490C3840,490,3771,490,3703,490C3634.3,490,3566,490,3497,490C3428.6,490,3360,490,3291,490C3222.9,490,3154,490,3086,490C3017.1,490,2949,490,2880,490C2811.4,490,2743,490,2674,490C2605.7,490,2537,490,2469,490C2400,490,2331,490,2263,490C2194.3,490,2126,490,2057,490C1988.6,490,1920,490,1851,490C1782.9,490,1714,490,1646,490C1577.1,490,1509,490,1440,490C1371.4,490,1303,490,1234,490C1165.7,490,1097,490,1029,490C960,490,891,490,823,490C754.3,490,686,490,617,490C548.6,490,480,490,411,490C342.9,490,274,490,206,490C137.1,490,69,490,34,490L0,490Z"/><defs><linearGradient id="sw-gradient-3" x1="0" x2="0" y1="1" y2="0"><stop stop-color="rgba(206.418, 69.173, 216.615, 1)" offset="0%"/><stop stop-color="rgba(234.829, 98.854, 193.566, 1)" offset="100%"/></linearGradient></defs><path style="transform:translate(0, 150px); opacity:0.7" fill="url(#sw-gradient-3)" d="M0,196L34.3,236.8C68.6,278,137,359,206,392C274.3,425,343,408,411,400.2C480,392,549,392,617,326.7C685.7,261,754,131,823,106.2C891.4,82,960,163,1029,163.3C1097.1,163,1166,82,1234,40.8C1302.9,0,1371,0,1440,0C1508.6,0,1577,0,1646,73.5C1714.3,147,1783,294,1851,294C1920,294,1989,147,2057,130.7C2125.7,114,2194,229,2263,236.8C2331.4,245,2400,147,2469,138.8C2537.1,131,2606,212,2674,228.7C2742.9,245,2811,196,2880,196C2948.6,196,3017,245,3086,261.3C3154.3,278,3223,261,3291,212.3C3360,163,3429,82,3497,73.5C3565.7,65,3634,131,3703,179.7C3771.4,229,3840,261,3909,277.7C3977.1,294,4046,294,4114,310.3C4182.9,327,4251,359,4320,343C4388.6,327,4457,261,4526,269.5C4594.3,278,4663,359,4731,334.8C4800,310,4869,180,4903,114.3L4937.1,49L4937.1,490L4902.9,490C4868.6,490,4800,490,4731,490C4662.9,490,4594,490,4526,490C4457.1,490,4389,490,4320,490C4251.4,490,4183,490,4114,490C4045.7,490,3977,490,3909,490C3840,490,3771,490,3703,490C3634.3,490,3566,490,3497,490C3428.6,490,3360,490,3291,490C3222.9,490,3154,490,3086,490C3017.1,490,2949,490,2880,490C2811.4,490,2743,490,2674,490C2605.7,490,2537,490,2469,490C2400,490,2331,490,2263,490C2194.3,490,2126,490,2057,490C1988.6,490,1920,490,1851,490C1782.9,490,1714,490,1646,490C1577.1,490,1509,490,1440,490C1371.4,490,1303,490,1234,490C1165.7,490,1097,490,1029,490C960,490,891,490,823,490C754.3,490,686,490,617,490C548.6,490,480,490,411,490C342.9,490,274,490,206,490C137.1,490,69,490,34,490L0,490Z"/></svg>